<svg xmlns="http://www.w3.org/2000/svg">
  <symbol id="icon-bot" viewBox="0 0 24 24">
    <path d="M12 3v3" fill="none" stroke="currentColor" stroke-width="2" stroke-linecap="round"/>
    <rect x="5" y="7" width="14" height="12" rx="4" fill="none" stroke="currentColor" stroke-width="2"/>
    <path d="M9 12h.01M15 12h.01M10 16h4" fill="none" stroke="currentColor" stroke-width="2" stroke-linecap="round"/>
  </symbol>
  <symbol id="icon-cart" viewBox="0 0 24 24">
    <path d="M4 5h2l2 11h9l3-8H7" fill="none" stroke="currentColor" stroke-width="2" stroke-linecap="round" stroke-linejoin="round"/>
    <circle cx="10" cy="20" r="1.5" fill="currentColor"/>
    <circle cx="17" cy="20" r="1.5" fill="currentColor"/>
  </symbol>
  <symbol id="icon-support" viewBox="0 0 24 24">
    <path d="M5 13a7 7 0 0 1 14 0v4a3 3 0 0 1-3 3h-3" fill="none" stroke="currentColor" stroke-width="2" stroke-linecap="round"/>
    <path d="M5 13h3v5H5zm11 0h3v5h-3z" fill="none" stroke="currentColor" stroke-width="2" stroke-linejoin="round"/>
  </symbol>
  <symbol id="icon-school" viewBox="0 0 24 24">
    <path d="m3 8 9-4 9 4-9 4z" fill="none" stroke="currentColor" stroke-width="2" stroke-linejoin="round"/>
    <path d="M7 11v5c2.8 2 7.2 2 10 0v-5" fill="none" stroke="currentColor" stroke-width="2" stroke-linecap="round"/>
  </symbol>
  <symbol id="icon-gear" viewBox="0 0 24 24">
    <path d="M12 8a4 4 0 1 0 0 8 4 4 0 0 0 0-8Z" fill="none" stroke="currentColor" stroke-width="2"/>
    <path d="M4 12h2m12 0h2M12 4v2m0 12v2M6.3 6.3l1.4 1.4m8.6 8.6 1.4 1.4m0-11.4-1.4 1.4m-8.6 8.6-1.4 1.4" fill="none" stroke="currentColor" stroke-width="2" stroke-linecap="round"/>
  </symbol>
  <symbol id="icon-clock" viewBox="0 0 24 24">
    <circle cx="12" cy="12" r="8" fill="none" stroke="currentColor" stroke-width="2"/>
    <path d="M12 8v5l3 2" fill="none" stroke="currentColor" stroke-width="2" stroke-linecap="round"/>
  </symbol>
  <symbol id="icon-shield" viewBox="0 0 24 24">
    <path d="M12 3 5 6v6c0 4.5 3 7.5 7 9 4-1.5 7-4.5 7-9V6z" fill="none" stroke="currentColor" stroke-width="2" stroke-linejoin="round"/>
    <path d="m9 12 2 2 4-5" fill="none" stroke="currentColor" stroke-width="2" stroke-linecap="round" stroke-linejoin="round"/>
  </symbol>
</svg>
